<svg xmlns="http://www.w3.org/2000/svg" viewBox="0 0 512 512" width="512" height="512">
  <rect width="512" height="512" rx="96" fill="#0d47a1"/>
  <!-- profil (bar) -->
  <rect x="80" y="216" width="352" height="80" rx="14" fill="#ffffff"/>
  <!-- kesish chiziqlari -->
  <rect x="196" y="206" width="10" height="100" rx="5" fill="#0d47a1"/>
  <rect x="306" y="206" width="10" height="100" rx="5" fill="#0d47a1"/>
  <!-- qoldiq (chiqindi) bo'lagi -->
  <rect x="372" y="216" width="60" height="80" rx="14" fill="#ffcc80"/>
  <!-- o'lchov belgilari -->
  <rect x="80" y="330" width="352" height="8" rx="4" fill="#90caf9"/>
  <rect x="80" y="326" width="8" height="16" rx="4" fill="#90caf9"/>
  <rect x="424" y="326" width="8" height="16" rx="4" fill="#90caf9"/>
  <!-- arra tishlari (yuqorida) -->
  <path d="M96 176 l24 -28 24 28 24 -28 24 28 24 -28 24 28 24 -28 24 28 24 -28 24 28 24 -28 24 28 24 -28 24 28"
        fill="none" stroke="#ffffff" stroke-width="14" stroke-linejoin="round" stroke-linecap="round"/>
</svg>
